<svg width="2200" height="2200" viewBox="0 0 2200 2200" fill="none" xmlns="http://www.w3.org/2000/svg">
<path fill-rule="evenodd" clip-rule="evenodd" d="M1469.64 553.138C1489.2 505.969 1500 454.245 1500 400C1500 179.086 1320.91 0 1100 0C879.086 0 700 179.086 700 400C700 455.416 711.269 508.201 731.641 556.187C716.149 584.504 690.475 618.644 658.022 652.25C623.177 688.333 587.444 716.628 558.538 732.648C509.928 711.641 456.323 700 400 700C179.086 700 0 879.086 0 1100C0 1320.91 179.086 1500 400 1500C620.914 1500 800 1320.91 800 1100C800 1053.91 792.203 1009.63 777.857 968.426C788.927 936.783 820.166 890.979 863.48 846.127C894.211 814.304 925.634 788.538 952.454 771.908C998.107 790.035 1047.89 800 1100 800C1152.78 800 1203.18 789.776 1249.32 771.2C1276.39 787.802 1308.27 813.848 1339.44 846.127C1380.95 889.108 1411.36 932.961 1423.57 964.392C1408.32 1006.74 1400 1052.4 1400 1100C1400 1320.91 1579.09 1500 1800 1500C2020.91 1500 2200 1320.91 2200 1100C2200 879.086 2020.91 700 1800 700C1744.31 700 1691.28 711.379 1643.11 731.939C1614.43 715.801 1579.23 687.807 1544.9 652.249C1511.27 617.429 1484.92 582.035 1469.64 553.138ZM1100 2200C1320.91 2200 1500 2020.91 1500 1800C1500 1579.09 1320.91 1400 1100 1400C879.086 1400 700 1579.09 700 1800C700 2020.91 879.086 2200 1100 2200Z" fill="url(#paint0_linear_7_57)"/>
<defs>
<linearGradient id="paint0_linear_7_57" x1="1100" y1="0" x2="1100" y2="2200" gradientUnits="userSpaceOnUse">
<stop stop-color="#50EEBB"/>
<stop offset="1" stop-color="#348C70"/>
</linearGradient>
</defs>
</svg>
